<?xml version="1.0" encoding="UTF-8" standalone="no"?>
<!-- Created with Inkscape (http://www.inkscape.org/) -->

<svg
   xmlns:dc="http://purl.org/dc/elements/1.1/"
   xmlns:cc="http://creativecommons.org/ns#"
   xmlns:rdf="http://www.w3.org/1999/02/22-rdf-syntax-ns#"
   xmlns:svg="http://www.w3.org/2000/svg"
   xmlns="http://www.w3.org/2000/svg"
   xmlns:sodipodi="http://sodipodi.sourceforge.net/DTD/sodipodi-0.dtd"
   xmlns:inkscape="http://www.inkscape.org/namespaces/inkscape"
   width="128"
   height="128"
   viewBox="0 0 128 128"
   id="svg2"
   version="1.1"
   inkscape:version="0.91 r13725"
   sodipodi:docname="icons.svg">
  <defs
     id="defs4" />
  <sodipodi:namedview
     id="base"
     pagecolor="#303030"
     bordercolor="#666666"
     borderopacity="1.0"
     inkscape:pageopacity="0"
     inkscape:pageshadow="2"
     inkscape:zoom="19.709914"
     inkscape:cx="11.98074"
     inkscape:cy="81.550111"
     inkscape:document-units="px"
     inkscape:current-layer="layer1-5"
     showgrid="true"
     units="px"
     inkscape:window-width="1920"
     inkscape:window-height="1051"
     inkscape:window-x="0"
     inkscape:window-y="0"
     inkscape:window-maximized="1">
    <inkscape:grid
       type="xygrid"
       id="grid4136"
       empspacing="1"
       spacingx="16"
       spacingy="16"
       dotted="false" />
  </sodipodi:namedview>
  <metadata
     id="metadata7">
    <rdf:RDF>
      <cc:Work
         rdf:about="">
        <dc:format>image/svg+xml</dc:format>
        <dc:type
           rdf:resource="http://purl.org/dc/dcmitype/StillImage" />
        <dc:title />
      </cc:Work>
    </rdf:RDF>
  </metadata>
  <g
     inkscape:label="Layer 1"
     inkscape:groupmode="layer"
     id="layer1"
     transform="translate(0,-924.36219)">
    <rect
       style="fill:#ffffff;fill-opacity:1;fill-rule:nonzero;stroke:none;stroke-width:0.5;stroke-linejoin:round;stroke-miterlimit:4;stroke-dasharray:none;stroke-opacity:1"
       id="rect5675"
       width="7.0594683"
       height="11.638765"
       x="4.0053573"
       y="990.40271" />
    <path
       style="fill:#ffffff;fill-opacity:1;stroke:none;stroke-width:0.5;stroke-miterlimit:4;stroke-dasharray:none;stroke-opacity:1"
       inkscape:connector-curvature="0"
       d="m 8.072262,1036.9241 c 3.744633,0 6.77986,0.8278 6.77986,1.8492 0,0.4735 0.09822,2.7531 -0.975368,3.0802 -1.241635,0.3784 -3.738745,0.4432 -5.7467548,0.4432 -2.0080348,0 -4.6204359,0.2816 -5.8620439,-0.097 -1.0736185,-0.3271 -0.9757645,-2.9531 -0.9757645,-3.4266 0,-1.0214 3.0354116,-1.8492 6.7800712,-1.8492 z m 6.77986,12.9439 c 0,1.0211 -3.035227,1.8491 -6.77986,1.8491 -3.7446596,10e-5 -6.7800712,-0.828 -6.7800712,-1.8491 l 0,-2.4658 c 0,1.0215 3.0354116,1.8491 6.7800712,1.8491 3.744633,0 6.77986,-0.8276 6.77986,-1.8491 z m 0,-1.793 c 0,1.0212 -3.035227,1.5028 -6.77986,1.5028 -3.7446596,0 -6.7800712,-0.1929 -6.7800712,-1.2141 l 0,-4.6596 c 0,1.0215 3.0354116,1.849 6.7800712,1.849 3.744633,0 6.77986,-0.8275 6.77986,-1.849 z m 0,-3.8714 c 0,1.0211 -2.97749,1.7914 -6.7221228,1.7914 -3.7446596,0 -6.8378084,-0.9435 -6.8378084,-1.9646 l 0,-4.0245 c 0,1.0214 3.0354116,1.8491 6.7800712,1.8491 3.744633,0 6.77986,-3.3324 6.77986,-2.311 z"
       id="path5667"
       sodipodi:nodetypes="sscscssssscscsssscscsssscscss" />
    <path
       id="path4198"
       d="m 8.0720508,1036.9241 c -3.744633,0 -6.77986,0.8278 -6.77986,1.8492 0,0.4735 0.65236,0.9055 1.725951,1.2326 1.241635,0.3784 3.045899,0.6164 5.053909,0.6164 2.0080352,0 3.8121152,-0.238 5.0537232,-0.6164 1.073619,-0.3271 1.726348,-0.7591 1.726348,-1.2326 0,-1.0214 -3.035412,-1.8492 -6.7800712,-1.8492 z m -6.77986,12.9439 c 0,1.0211 3.035227,1.8491 6.77986,1.8491 3.7446592,10e-5 6.7800712,-0.828 6.7800712,-1.8491 l 0,-2.4658 c 0,1.0215 -3.035412,1.8491 -6.7800712,1.8491 -3.744633,0 -6.77986,-0.8276 -6.77986,-1.8491 l 0,2.4658 z m 0,-3.6983 c 0,1.0212 3.035227,1.8492 6.77986,1.8492 3.7446592,0 6.7800712,-0.828 6.7800712,-1.8492 l 0,-2.4656 c 0,1.0215 -3.035412,1.849 -6.7800712,1.849 -3.744633,0 -6.77986,-0.8275 -6.77986,-1.849 l 0,2.4656 z m 0,-3.6982 c 0,1.0211 3.035227,1.8491 6.77986,1.8491 3.7446592,0 6.7800712,-0.828 6.7800712,-1.8491 l 0,-2.4656 c 0,1.0214 -3.035412,1.8491 -6.7800712,1.8491 -3.744633,0 -6.77986,-0.8277 -6.77986,-1.8491 l 0,2.4656 z"
       inkscape:connector-curvature="0"
       style="fill:#9be034;fill-opacity:1;stroke:none;stroke-width:0.5;stroke-miterlimit:4;stroke-dasharray:none;stroke-opacity:1" />
    <circle
       style="fill:#00b0ff;fill-opacity:1;fill-rule:nonzero;stroke:none;stroke-width:0.5;stroke-linejoin:round;stroke-miterlimit:4;stroke-dasharray:none;stroke-opacity:1"
       id="path4373"
       cx="8"
       cy="1012.3622"
       r="6.3423271" />
    <g
       id="g4280"
       transform="matrix(0.10499117,0,0,0.10499117,1.2567826,1021.5731)">
      <path
         id="path4282"
         d="M 19.42,44.8 C 31.34,36.37 38.72,26.66 42.76,20.16 46.8,26.66 54.18,36.37 66.1,44.8 54.19,53.23 46.8,62.93 42.76,69.43 38.73,62.94 31.34,53.23 19.42,44.8 Z"
         inkscape:connector-curvature="0"
         style="fill:#fcc21b" />
      <path
         id="path4284"
         d="M 96.2,81.84 C 93.7,78.68 89.66,74.48 83.68,70.61 89.66,66.74 93.69,62.54 96.2,59.38 c 2.5,3.16 6.54,7.36 12.51,11.23 -5.97,3.87 -10,8.07 -12.51,11.23 z"
         inkscape:connector-curvature="0"
         style="fill:#fcc21b" />
      <path
         id="path4286"
         d="m 63.71,110.4 c -2.08,-3.05 -5.18,-6.82 -9.56,-10.3 4.38,-3.490002 7.48,-7.250002 9.56,-10.310002 2.08,3.05 5.18,6.82 9.56,10.310002 -4.38,3.48 -7.48,7.25 -9.56,10.3 z"
         inkscape:connector-curvature="0"
         style="fill:#fcc21b" />
      <g
         id="g4288">
        <path
           id="path4290"
           d="M 46.7,80.07 C 46.78,79.88 54.79,61.21 76.1,48.46 L 82.22,44.8 76.1,41.13 C 54.79,28.39 46.78,9.72 46.71,9.54 L 42.79,0.08 38.83,9.53 C 38.75,9.72 30.74,28.39 9.43,41.14 L 3.3,44.8 9.42,48.46 c 21.31,12.75 29.32,31.42 29.4,31.61 l 3.92,9.44 3.96,-9.44 z M 19.42,44.8 C 31.34,36.37 38.72,26.66 42.76,20.16 46.8,26.66 54.18,36.37 66.1,44.8 54.19,53.23 46.8,62.93 42.76,69.43 38.73,62.94 31.34,53.23 19.42,44.8 Z"
           inkscape:connector-curvature="0"
           style="fill:#f79329" />
        <path
           id="path4292"
           d="M 117.92,67.26 C 104.6,60.68 99.58,51.13 99.54,51.05 l -3.31,-6.56 -3.36,6.55 c -0.05,0.09 -5.07,9.64 -18.4,16.23 l -6.78,3.35 6.78,3.35 c 13.29,6.57 18.32,16.08 18.39,16.23 l 3.3,6.55 3.36,-6.55 c 0.05,-0.09 5.07,-9.64 18.39,-16.23 l 6.78,-3.35 -6.77,-3.36 z M 96.2,81.84 C 93.7,78.68 89.66,74.48 83.68,70.61 89.66,66.74 93.69,62.54 96.2,59.38 c 2.5,3.16 6.54,7.36 12.51,11.23 -5.97,3.87 -10,8.07 -12.51,11.23 z"
           inkscape:connector-curvature="0"
           style="fill:#f79329" />
        <path
           id="path4294"
           d="m 67.18,80.82 -3.43,-8.54 -3.49,8.53 c -0.04,0.09 -4.03,9.61 -14.54,16.11 l -5.14,3.18 5.14,3.17 c 10.46,6.47 14.46,15.92 14.54,16.11 l 3.43,8.53 3.49,-8.53 c 0.04,-0.1 4.02,-9.61 14.54,-16.11 l 5.14,-3.17 -5.14,-3.18 C 71.2,90.42 67.21,80.91 67.18,80.82 Z m -3.47,29.58 c -2.08,-3.05 -5.18,-6.82 -9.56,-10.3 4.38,-3.49 7.48,-7.25 9.56,-10.31 2.08,3.05 5.18,6.82 9.56,10.31 -4.38,3.48 -7.48,7.25 -9.56,10.3 z"
           inkscape:connector-curvature="0"
           style="fill:#f79329" />
      </g>
    </g>
    <path
       id="path4364"
       d="m 0.6067829,1012.2256 q 0,-1.5226 0.5904243,-2.9015 0.5904238,-1.379 1.5887069,-2.3774 0.9982826,-0.9982 2.3811183,-1.5886 1.3828351,-0.5905 2.8977391,-0.5905 1.5149036,0 2.8977385,0.5905 1.382836,0.5904 2.381118,1.5886 0.998283,0.9984 1.588707,2.3774 0.590424,1.3789 0.590424,2.9015 0,1.515 -0.590424,2.8978 -0.590424,1.3828 -1.588707,2.3812 -0.998282,0.9982 -2.381118,1.5886 -1.3828349,0.5905 -2.8977385,0.5905 -1.514904,0 -2.8977391,-0.5905 -1.3828357,-0.5904 -2.3811183,-1.5886 -0.9982831,-0.9984 -1.5887069,-2.3812 -0.5904243,-1.3828 -0.5904243,-2.8978 z m 1.4061419,0 q 0,1.212 0.4622395,2.3152 0.4622401,1.1032 1.2507671,1.9072 0.7885268,0.804 1.8722659,1.2973 1.083739,0.4934 2.2878932,0.5322 -0.1165311,-0.132 -0.178681,-0.5361 -0.015536,-0.1015 -0.038846,-0.3922 -0.023304,-0.2914 -0.054381,-0.4389 -0.015536,-0.1015 -0.2796746,-0.8625 -0.077687,-0.2408 -0.1709119,-0.3068 -0.093225,-0.065 -0.357362,-0.081 -0.1398373,-0.011 -0.3962058,-0.012 -0.2563684,-0.011 -0.4350493,-0.016 -0.178681,-0.012 -0.4117428,-0.035 -0.2330624,-0.023 -0.3962057,-0.09 -0.1631435,-0.065 -0.3262874,-0.1709 -0.1631434,-0.1046 -0.264137,-0.2836 -0.1009931,-0.1787 -0.1398373,-0.4194 -0.1709118,-0.9867 0.6059619,-1.6393 0.3962052,-0.3263 0.8312547,-0.439 0.4350494,-0.1125 1.0177046,-0.097 0.3884373,0.011 0.6681118,0.2175 0.349593,0.2874 0.7069549,0.3029 0.077687,0.011 0.3495933,0.031 0.271906,0.023 0.4467022,0.035 0.1747963,0.012 0.4039748,-0.019 0.2291775,-0.031 0.3767836,-0.1086 l 0,-0.1015 q 0,-0.031 0.015537,-0.1205 0.015537,-0.089 0.019416,-0.1475 0.00391,-0.058 -0.015537,-0.1204 -0.019415,-0.062 -0.081572,-0.093 -0.069915,-0.031 -0.3262865,-0.012 -0.2563687,0.02 -0.31075,-0.066 -0.1398367,-0.1321 0.034963,-0.2641 0.1747973,-0.1321 0.4777778,-0.2486 0.3029806,-0.1165 0.3418246,-0.1554 0.2252926,-0.233 -0.09323,-0.2951 -0.3107484,-0.062 -0.61373,0.07 -0.062146,0.031 -0.1009879,0.062 -0.1398379,0.132 -0.2796746,0.4584 -0.038842,0.1014 -0.1437217,0.2602 -0.1048784,0.1593 -0.1437218,0.2369 -0.023304,-0.039 -0.085456,-0.097 -0.06215,-0.058 -0.085457,-0.09 -0.046613,-0.054 -0.1786809,-0.3186 -0.015537,-0.031 -0.038846,-0.097 -0.023309,-0.067 -0.038846,-0.1047 -0.015535,-0.039 -0.046613,-0.097 -0.031077,-0.058 -0.06215,-0.077 -0.031078,-0.02 -0.085456,-0.042 -0.054381,-0.023 -0.1087627,0.011 -0.015536,0.163 0.1087627,0.3651 0.1242996,0.202 0.1242996,0.3107 0.00777,0.2098 -0.093225,0.1904 -0.1009931,-0.019 -0.2252932,-0.2059 -0.031077,-0.046 -0.085457,-0.1437 -0.054381,-0.097 -0.085456,-0.1399 -0.031077,-0.042 -0.093225,-0.097 -0.06215,-0.055 -0.1437218,-0.065 -0.081571,-0.012 -0.190334,0.01 -0.2019872,0.031 -0.3185183,0.1166 -0.031072,0.023 -0.1165312,0.1242 -0.085456,0.1015 -0.1553743,0.1243 -0.046613,0.2719 -0.4195125,0.2564 -0.015535,0 -0.097109,0 -0.081571,0 -0.1320681,-0.011 -0.050497,-0.01 -0.1204157,-0.016 -0.069919,-0.012 -0.1165312,-0.035 -0.046613,-0.023 -0.069918,-0.062 -0.038846,-0.077 0.034961,-0.3379 0.073803,-0.2604 0.1359528,-0.338 0.06215,-0.077 0.1670279,-0.1047 0.1048784,-0.028 0.3029807,-0.02 0.1981031,0.011 0.2136401,0.011 0.031077,-0.1398 -0.077687,-0.2602 -0.1087626,-0.1205 -0.1243002,-0.1593 -0.015535,-0.086 -0.015535,-0.1282 0,-0.042 0.054381,-0.062 0.054381,-0.019 0.1009932,-0.019 l 0.1165313,0 q 0,0 0.1009931,-0.01 0.2874437,-0.054 0.4738932,-0.2408 0.00777,-0.011 0.058265,-0.051 0.050497,-0.042 0.073803,-0.058 l 0.081571,-0.054 q 0,0 0.085456,-0.039 0.085457,-0.039 0.089341,-0.02 0.00388,0.02 0.093225,0.012 0.031078,0.01 0.093225,0.074 0.06215,0.066 0.1009932,0.074 0.054381,0.016 0.2485994,-0.054 0.2019871,-0.07 0.3029812,-0.1631 0.1009932,-0.093 0.2097555,-0.2797 0.201987,-0.3263 0.06215,-0.5516 -0.093225,-0.132 -0.2408307,-0.093 -0.1476058,0.039 -0.2252932,0.1942 -0.023304,0.054 -0.046613,0.1709 -0.023304,0.1166 -0.058265,0.1981 -0.034961,0.081 -0.097109,0.1282 -0.077687,0.055 -0.2485999,0.065 -0.170912,0.012 -0.264137,-0.035 -0.069919,-0.031 -0.1009931,-0.097 -0.031078,-0.066 -0.031078,-0.1165 0,-0.051 0.011653,-0.1593 0.011651,-0.1088 0.011651,-0.1399 0,-0.062 0.015536,-0.1164 0.015536,-0.055 0.034962,-0.093 0.01942,-0.039 0.058265,-0.086 0.038846,-0.047 0.066035,-0.074 0.027188,-0.028 0.077687,-0.074 0.050497,-0.047 0.081571,-0.077 0.1242998,-0.1243 0.2602531,-0.1902 0.1359527,-0.065 0.3068652,-0.065 0.1709119,0 0.2719052,0.01 0.1009932,0.011 0.3224028,0.062 0.221409,0.055 0.2913279,0.07 0.2719053,0.054 0.5748869,-0.2796 0.04661,-0.062 0.1359526,-0.136 0.089341,-0.074 0.1242995,-0.136 0.03496,-0.062 0.03496,-0.1786 0,-0.1087 -0.019419,-0.3768 -0.01943,-0.268 -0.02718,-0.4506 -0.0078,-0.1826 0.02718,-0.4118 0.034959,-0.2291 0.1204145,-0.3767 -0.994398,-0.3651 -2.050946,-0.3651 -0.7457986,0 -1.4993664,0.1942 l -0.00777,0.039 q 0,0.2952 0.031077,0.3341 0.069919,0.086 0.2563685,0.1165 0.1864495,0.031 0.357362,0.039 0.1709119,0.011 0.287443,0.1046 0.1165313,0.097 0.069919,0.2914 -0.054381,0.2174 -0.3068651,0.4856 -0.252484,0.2679 -0.5088524,0.4544 -0.3185182,0.2331 -0.7768739,0.2952 -0.00777,0 -0.089341,0.012 -0.081572,0.012 -0.1165312,0.012 -0.034962,0 -0.1242997,0.01 -0.089341,0.011 -0.1398373,0 -0.050497,-0.01 -0.1281842,-0.016 -0.077687,-0.011 -0.1204156,-0.028 -0.042729,-0.019 -0.085457,-0.051 -0.042729,-0.031 -0.06215,-0.081 -0.01942,-0.051 -0.01942,-0.1127 0.00777,-0.1398 0.1359532,-0.2525 0.1281842,-0.1126 0.2680215,-0.163 0.1398372,-0.051 0.3418244,-0.1127 0.2019871,-0.062 0.264137,-0.086 0.015535,-0.1943 -0.054381,-0.2602 -0.069918,-0.066 -0.190334,-0.031 -0.1204152,0.035 -0.2641369,0.09 -0.1437219,0.054 -0.2757901,0.093 -0.1320688,0.039 -0.2330623,-0.016 -0.038846,-0.1242 0.089341,-0.2097 0.1281842,-0.086 0.1437218,-0.1166 0.069918,-0.163 -0.1398373,-0.2952 -0.4583555,0.2486 -0.8312551,0.5595 0.1631434,0.023 0.271906,0.1014 0.1087621,0.077 0.1009932,0.2253 0,0.078 -0.034962,0.1399 -0.034961,0.062 -0.066035,0.093 -0.031078,0.031 -0.097109,0.09 -0.066034,0.058 -0.097109,0.081 -0.2330624,0.2175 -0.3418245,0.3963 -0.046613,0.07 -0.1087626,0.3378 -0.062149,0.2681 -0.1786809,0.3379 -0.1786805,0.1015 -0.2447149,0.011 -0.066035,-0.093 -0.081571,-0.2953 l 0,-0.132 q 0,0 -0.01942,-0.042 -0.01942,-0.042 -0.058265,-0.042 -0.1009932,-0.031 -0.2874431,0.016 -1.0798545,1.5459 -1.0798545,3.4492 z m 7.8464249,1.1498 q -0.023305,0.4816 0.3185183,0.8468 0.42728,0.4429 0.831255,0.5127 0.163143,0.031 0.454471,-0.023 0.291328,-0.054 0.392321,-0.054 0.0078,0.2641 -0.30298,0.839 -0.341824,0.5904 -0.520506,0.7769 -0.03884,0.039 -0.112647,0.1046 -0.0738,0.066 -0.108762,0.1015 -0.03496,0.035 -0.08545,0.097 -0.0505,0.062 -0.06215,0.1088 -0.01165,0.047 -0.01165,0.1165 0,0.07 0.03107,0.1476 0.01554,0.039 0.06604,0.1398 0.0505,0.1015 0.0505,0.1243 0,0.023 -0.01554,0.1477 -0.02331,0.062 -0.06215,0.097 -0.03884,0.035 -0.108762,0.066 -0.06991,0.031 -0.100999,0.054 -0.06991,0.047 -0.182565,0.132 -0.112647,0.086 -0.201988,0.1515 -0.08934,0.067 -0.1903328,0.1205 1.8489578,-0.606 3.0220378,-2.1869 1.17308,-1.5809 1.17308,-3.5698 0,-0.202 -0.03107,-0.5749 -0.06215,0.086 -0.06991,0.1865 -0.03884,0.2719 -0.03884,0.3341 0,0.054 0.01165,0.2214 0.01166,0.167 0.0039,0.2913 -0.0078,0.1243 -0.06215,0.1865 -0.04661,0.054 -0.100999,0.062 -0.05438,0.011 -0.116531,-0.031 -0.06215,-0.039 -0.112646,-0.086 -0.0505,-0.047 -0.116531,-0.1087 -0.06604,-0.062 -0.104878,-0.086 -0.139836,-0.093 -0.225293,-0.1438 -0.08545,-0.051 -0.205871,-0.093 -0.120416,-0.042 -0.236946,-0.035 -0.116532,0.011 -0.248601,0.07 -0.279674,0.1398 -0.621498,0.1398 -0.05438,0 -0.174797,-0.011 -0.120416,-0.011 -0.198103,-0.011 -0.07768,0 -0.174796,0.02 -0.09711,0.019 -0.15926,0.058 0.01554,0.1709 0.120415,0.3185 0.104878,0.1476 0.268022,0.1554 0.07768,0 0.116531,-0.027 0.03884,-0.028 0.0738,-0.074 0.03496,-0.046 0.08157,-0.07 0.116531,-0.077 0.36513,-0.062 0.02331,0.4039 0,0.4894 -0.0233,0.086 -0.100999,0.1982 -0.07768,0.1125 -0.09323,0.198 -0.0077,0.039 -0.02718,0.1515 -0.01942,0.1126 -0.03496,0.1632 -0.01554,0.051 -0.05827,0.1243 -0.04273,0.074 -0.104877,0.128 -0.124299,0.1015 -0.271906,0.1438 -0.147605,0.042 -0.271905,-0.035 -0.04661,-0.039 -0.128185,-0.1514 -0.08157,-0.1127 -0.143722,-0.167 -0.04661,-0.039 -0.08545,-0.07 -0.03884,-0.031 -0.07768,-0.077 -0.03884,-0.047 -0.05827,-0.074 -0.01941,-0.028 -0.06215,-0.093 -0.04273,-0.066 -0.06604,-0.097 -0.09323,-0.1321 -0.330172,-0.2875 -0.236946,-0.1553 -0.3068638,-0.233 -0.062147,0.039 -0.073804,0.066 -0.011647,0.027 -0.019415,0.1359 z"
       inkscape:connector-curvature="0"
       style="fill:#ffffff;fill-opacity:1" />
    <path
       id="path4462"
       d="m 127.11117,1045.6578 q 0,0.048 -0.01,0.067 -0.60505,2.5336 -2.53361,4.1077 -1.92857,1.5741 -4.51891,1.5741 -1.38025,0 -2.67068,-0.5201 -1.29044,-0.5199 -2.30199,-1.4842 l -1.21954,1.2195 q -0.17963,0.1797 -0.42542,0.1797 -0.2458,0 -0.42542,-0.1797 -0.17962,-0.1796 -0.17962,-0.4253 l 0,-4.2353 q 0,-0.2459 0.17962,-0.4255 0.17962,-0.1796 0.42542,-0.1796 l 4.23529,0 q 0.2458,0 0.42542,0.1796 0.17962,0.1796 0.17962,0.4255 0,0.2458 -0.17962,0.4253 l -1.29517,1.2952 q 0.67122,0.624 1.52206,0.9643 0.85084,0.3403 1.76785,0.3403 1.2668,0 2.36345,-0.6145 1.09664,-0.6144 1.7584,-1.6922 0.10398,-0.1607 0.50104,-1.106 0.0756,-0.2175 0.28362,-0.2175 l 1.81512,0 q 0.1229,0 0.21271,0.089 0.0898,0.089 0.0898,0.2127 z m 0.23634,-7.563 0,4.2353 q 0,0.2458 -0.17961,0.4254 -0.17963,0.1796 -0.42543,0.1796 l -4.23528,0 q -0.2458,0 -0.42543,-0.1796 -0.17961,-0.1796 -0.17961,-0.4254 0,-0.2458 0.17961,-0.4254 l 1.30462,-1.3046 q -1.39915,-1.2952 -3.29936,-1.2952 -1.2668,0 -2.36344,0.6145 -1.09664,0.6145 -1.75841,1.6922 -0.10398,0.1607 -0.50104,1.1061 -0.0756,0.2174 -0.28362,0.2174 l -1.88129,0 q -0.1229,0 -0.21272,-0.089 -0.0898,-0.089 -0.0898,-0.2127 l 0,-0.067 q 0.61449,-2.5337 2.55252,-4.1077 1.93802,-1.5741 4.53781,-1.5741 1.38025,0 2.68487,0.5248 1.30462,0.5246 2.31617,1.4795 l 1.22899,-1.2195 q 0.17962,-0.1797 0.42542,-0.1797 0.2458,0 0.42542,0.1797 0.17962,0.1795 0.17962,0.4253 z"
       inkscape:connector-curvature="0"
       style="fill:#ffffff;fill-opacity:1" />
    <path
       id="path4535"
       d="m 121.07466,1017.0866 0,-1.5576 q 0,-0.1148 -0.0779,-0.1926 -0.0779,-0.078 -0.18446,-0.078 l -1.57401,0 q -0.10658,0 -0.18446,0.078 -0.0779,0.078 -0.0779,0.1926 l 0,1.5576 q 0,0.1148 0.0779,0.1927 0.0779,0.078 0.18446,0.078 l 1.57401,0 q 0.10658,0 0.18446,-0.078 0.0779,-0.078 0.0779,-0.1927 z m -0.0164,-3.066 0.14757,-3.7629 q 0,-0.098 -0.082,-0.1558 -0.10658,-0.09 -0.19675,-0.09 l -1.80356,0 q -0.0902,0 -0.19676,0.09 -0.082,0.057 -0.082,0.1722 l 0.13937,3.7465 q 0,0.082 0.082,0.1352 0.082,0.053 0.19675,0.053 l 1.51663,0 q 0.11477,0 0.19266,-0.053 0.0779,-0.053 0.0861,-0.1352 z m -0.11477,-7.657 6.29607,11.5428 q 0.28693,0.5165 -0.0164,1.033 -0.13937,0.2377 -0.38121,0.3771 -0.24184,0.1394 -0.52057,0.1394 l -12.59213,0 q -0.27873,0 -0.52057,-0.1394 -0.24185,-0.1394 -0.38121,-0.3771 -0.30333,-0.5165 -0.0164,-1.033 l 6.29606,-11.5428 q 0.13937,-0.2541 0.38531,-0.4017 0.24594,-0.1475 0.53287,-0.1475 0.28693,0 0.53287,0.1475 0.24594,0.1476 0.38531,0.4017 z"
       inkscape:connector-curvature="0"
       style="fill:#ffffff;fill-opacity:1" />
    <path
       id="path4618"
       d="m 104.10232,1036.8382 q 2.01549,0 3.71758,0.9933 1.70208,0.9933 2.69536,2.6954 0.99328,1.7021 0.99328,3.7175 0,2.0155 -0.99328,3.7176 -0.99328,1.7021 -2.69536,2.6954 -1.70209,0.9933 -3.71758,0.9933 -2.0155,0 -3.71758,-0.9933 -1.702078,-0.9933 -2.695361,-2.6954 -0.993282,-1.7021 -0.993282,-3.7176 0,-2.0154 0.993282,-3.7175 0.993283,-1.7021 2.695361,-2.6954 1.70208,-0.9933 3.71758,-0.9933 z m 1.23437,12.0255 0,-1.8323 q 0,-0.135 -0.0868,-0.2266 -0.0868,-0.092 -0.21216,-0.092 l -1.85156,0 q -0.12536,0 -0.2218,0.096 -0.0964,0.096 -0.0964,0.2218 l 0,1.8323 q 0,0.1253 0.0964,0.2218 0.0964,0.096 0.2218,0.096 l 1.85156,0 q 0.12536,0 0.21216,-0.092 0.0868,-0.092 0.0868,-0.2266 z m -0.0193,-3.3174 0.17358,-5.9887 q 0,-0.1157 -0.0964,-0.1735 -0.0964,-0.077 -0.23145,-0.077 l -2.12157,0 q -0.13501,0 -0.23144,0.077 -0.0964,0.058 -0.0964,0.1735 l 0.16394,5.9887 q 0,0.097 0.0964,0.1688 0.0964,0.072 0.23144,0.072 l 1.78405,0 q 0.13501,0 0.22662,-0.072 0.0916,-0.072 0.10126,-0.1688 z"
       inkscape:connector-curvature="0"
       style="fill:#ffffff;fill-opacity:1" />
    <path
       id="path4681"
       d="m 105.36836,1024.8557 0,4.4417 q 0,0.1388 -0.0892,0.228 -0.0892,0.09 -0.22802,0.09 l -3.1726,0 q -0.1388,0 -0.22803,-0.09 -0.0892,-0.089 -0.0892,-0.228 l 0,-0.6345 q 0,-0.1388 0.0892,-0.2281 0.0893,-0.089 0.22803,-0.089 l 2.22082,0 0,-3.4898 q 0,-0.1388 0.0892,-0.228 0.0893,-0.09 0.22803,-0.09 l 0.63451,0 q 0.1388,0 0.22803,0.09 0.0893,0.09 0.0893,0.228 z m 4.12438,3.4899 q 0,-1.4673 -0.72375,-2.7065 -0.72375,-1.2394 -1.96305,-1.9631 -1.23929,-0.7238 -2.70661,-0.7238 -1.46733,0 -2.70662,0.7238 -1.2393,0.7237 -1.963047,1.9631 -0.723749,1.2392 -0.723749,2.7065 0,1.4674 0.723749,2.7066 0.723747,1.2394 1.963047,1.9631 1.23929,0.7238 2.70662,0.7238 1.46732,0 2.70661,-0.7238 1.2393,-0.7237 1.96305,-1.9631 0.72375,-1.2392 0.72375,-2.7066 z m 2.22082,0 q 0,2.0721 -1.02118,3.822 -1.02119,1.7499 -2.77106,2.7711 -1.74989,1.0211 -3.82199,1.0211 -2.07211,0 -3.82199,-1.0211 -1.749884,-1.0212 -2.771064,-2.7711 -1.021179,-1.7499 -1.021179,-3.822 0,-2.072 1.021179,-3.8219 1.02118,-1.75 2.771064,-2.7711 1.74988,-1.0212 3.82199,-1.0212 2.0721,0 3.82199,1.0212 1.74987,1.0211 2.77106,2.7711 1.02118,1.7499 1.02118,3.8219 z"
       inkscape:connector-curvature="0"
       style="fill:#ffffff;fill-opacity:1" />
    <path
       id="path4783"
       d="m 119.99546,1032.2684 0.94834,-0.9483 -1.24266,-1.2427 -0.94834,0.9484 0,0.4578 0.78484,0 0,0.7848 0.45782,0 z m 3.59715,-5.8862 q -0.13081,-0.1309 -0.26979,0.01 l -2.86137,2.8613 q -0.13898,0.139 -0.008,0.2698 0.13081,0.1308 0.26979,-0.01 l 2.86137,-2.8614 q 0.13898,-0.1389 0.008,-0.2697 z m 0.65403,4.8561 0,1.5533 q 0,0.9729 -0.69082,1.6637 -0.69082,0.6908 -1.66368,0.6908 l -6.80189,0 q -0.97287,0 -1.66368,-0.6908 -0.69082,-0.6908 -0.69082,-1.6637 l 0,-6.8019 q 0,-0.9728 0.69082,-1.6636 0.69081,-0.6909 1.66368,-0.6909 l 6.80189,0 q 0.51504,0 0.95651,0.2044 0.12263,0.057 0.14716,0.1881 0.0245,0.1389 -0.0736,0.237 l -0.40059,0.4006 q -0.11446,0.1145 -0.26161,0.065 -0.18804,-0.049 -0.36789,-0.049 l -6.80189,0 q -0.53957,0 -0.92382,0.3843 -0.38424,0.3842 -0.38424,0.9238 l 0,6.8019 q 0,0.5395 0.38424,0.9238 0.38425,0.3842 0.92382,0.3842 l 6.80189,0 q 0.53957,0 0.92381,-0.3842 0.38424,-0.3843 0.38424,-0.9238 l 0,-1.0301 q 0,-0.1063 0.0736,-0.1799 l 0.52322,-0.5232 q 0.12263,-0.1226 0.28614,-0.057 0.16351,0.065 0.16351,0.2371 z m -0.78484,-6.0334 2.3545,2.3545 -5.49383,5.4938 -2.3545,0 0,-2.3545 z m 3.62986,1.0791 -0.75214,0.7522 -2.3545,-2.3545 0.75214,-0.7522 q 0.22891,-0.2289 0.55592,-0.2289 0.32701,0 0.55592,0.2289 l 1.24266,1.2427 q 0.22891,0.2289 0.22891,0.5559 0,0.327 -0.22891,0.5559 z"
       inkscape:connector-curvature="0"
       style="fill:#ffffff;fill-opacity:1" />
    <path
       id="path4885"
       d="m 116.70174,1002.0521 6.7887,0 0,-3.39433 -6.7887,0 0,3.39433 z m 7.92014,0 1.13146,0 0,-7.92014 q 0,-0.12375 -0.0884,-0.34031 -0.0884,-0.21657 -0.17679,-0.30496 l -2.48388,-2.48389 q -0.0884,-0.0883 -0.30055,-0.17678 -0.21214,-0.0884 -0.34473,-0.0884 l 0,3.6772 q 0,0.35359 -0.24751,0.60109 -0.2475,0.2475 -0.60108,0.2475 l -5.09152,0 q -0.35358,0 -0.60109,-0.2475 -0.2475,-0.2475 -0.2475,-0.60109 l 0,-3.6772 -1.13145,0 0,11.31454 1.13145,0 0,-3.67728 q 0,-0.35356 0.2475,-0.60106 0.24751,-0.24753 0.60109,-0.24753 l 7.35441,0 q 0.35358,0 0.60109,0.24753 0.2475,0.2475 0.2475,0.60106 l 0,3.67728 z m -3.39434,-8.20298 0,-2.82863 q 0,-0.11491 -0.0839,-0.19888 -0.0839,-0.0839 -0.19889,-0.0839 l -1.69717,0 q -0.11491,0 -0.19889,0.0839 -0.0839,0.0839 -0.0839,0.19888 l 0,2.82863 q 0,0.1149 0.0839,0.19887 0.0839,0.0839 0.19889,0.0839 l 1.69717,0 q 0.11491,0 0.19889,-0.0839 0.0839,-0.0839 0.0839,-0.19887 z m 5.65725,0.28284 0,8.20304 q 0,0.3536 -0.24751,0.601 -0.2475,0.2475 -0.60108,0.2475 l -11.88022,0 q -0.35358,0 -0.60108,-0.2475 -0.24751,-0.2474 -0.24751,-0.601 l 0,-11.88023 q 0,-0.3536 0.24751,-0.60109 0.2475,-0.2475 0.60108,-0.2475 l 8.20301,0 q 0.35358,0 0.77787,0.17679 0.4243,0.17677 0.6718,0.4243 l 2.47504,2.47504 q 0.24751,0.2475 0.42429,0.67178 0.1768,0.42431 0.1768,0.77787 z"
       inkscape:connector-curvature="0"
       style="fill:#ffffff;fill-opacity:1" />
    <path
       id="path5010"
       d="m 123.45321,966.88765 0,0.58082 q 0,0.12706 -0.0817,0.20874 -0.0817,0.0817 -0.20874,0.0817 l -6.38908,0 q -0.12706,0 -0.20874,-0.0817 -0.0817,-0.0817 -0.0817,-0.20874 l 0,-0.58082 q 0,-0.12706 0.0817,-0.20873 0.0817,-0.0817 0.20874,-0.0817 l 6.38908,0 q 0.12706,0 0.20874,0.0817 0.0817,0.0817 0.0817,0.20873 z m 0,-2.32331 0,0.58083 q 0,0.12705 -0.0817,0.20874 -0.0817,0.0817 -0.20874,0.0817 l -6.38908,0 q -0.12706,0 -0.20874,-0.0817 -0.0817,-0.0817 -0.0817,-0.20874 l 0,-0.58083 q 0,-0.12705 0.0817,-0.20873 0.0817,-0.0817 0.20874,-0.0817 l 6.38908,0 q 0.12706,0 0.20874,0.0817 0.0817,0.0817 0.0817,0.20873 z m -8.13157,5.51785 9.29322,0 0,-6.96991 -3.77537,0 q -0.36302,0 -0.61713,-0.25411 -0.25411,-0.25411 -0.25411,-0.61713 l 0,-3.77537 -4.64661,0 0,11.61652 z m 5.80826,-8.13157 3.41236,0 q -0.0907,-0.26318 -0.19965,-0.37209 l -2.84062,-2.84061 q -0.1089,-0.1089 -0.37209,-0.19965 l 0,3.41235 z m 4.64661,0.29042 0,8.13157 q 0,0.36302 -0.2541,0.61713 -0.25412,0.25411 -0.61713,0.25411 l -9.87405,0 q -0.36302,0 -0.61713,-0.25411 -0.25411,-0.25411 -0.25411,-0.61713 l 0,-12.19736 q 0,-0.36302 0.25411,-0.61713 0.25411,-0.25411 0.61713,-0.25411 l 5.80826,0 q 0.36302,0 0.79863,0.1815 0.43563,0.18152 0.68974,0.43563 l 2.83153,2.83153 q 0.25411,0.25411 0.43562,0.68973 0.1815,0.43562 0.1815,0.79864 z"
       inkscape:connector-curvature="0"
       style="fill:#ffffff;fill-opacity:1" />
    <path
       id="path5103"
       d="m 126.72587,974.00876 q 0.15937,0.38436 -0.13125,0.65624 l -4.62179,4.62179 0,6.95615 q 0,0.39371 -0.36563,0.5531 -0.12187,0.0469 -0.23437,0.0469 -0.25312,0 -0.42186,-0.1781 l -2.39996,-2.39998 q -0.17813,-0.17811 -0.17813,-0.42187 l 0,-4.55617 -4.62179,-4.62179 q -0.29063,-0.27188 -0.13126,-0.65623 0.15938,-0.36564 0.55313,-0.36564 l 11.99979,0 q 0.39374,0 0.55312,0.36564 z"
       inkscape:connector-curvature="0"
       style="fill:#ffffff;fill-opacity:1" />
    <path
       id="path5186"
       d="m 110.44303,964.79954 q 0,-0.2686 -0.40674,-0.2686 l -8.34962,0 q -0.30698,0 -0.65615,0.16499 -0.34918,0.16499 -0.54871,0.40289 l -2.256241,2.78577 q -0.138139,0.18419 -0.138139,0.30698 0,0.26859 0.406739,0.26859 l 8.349621,0 q 0.30696,0 0.65999,-0.16884 0.35302,-0.16883 0.54487,-0.40673 l 2.25624,-2.78577 q 0.13814,-0.16882 0.13814,-0.29928 z m -8.75636,-1.25092 5.89385,0 0,-1.22787 q 0,-0.30699 -0.21489,-0.52185 -0.21488,-0.21489 -0.52184,-0.21489 l -4.42039,0 q -0.30697,0 -0.52185,-0.21489 -0.21488,-0.21488 -0.21488,-0.52183 l 0,-0.49117 q 0,-0.30697 -0.21488,-0.52185 -0.21488,-0.21487 -0.52185,-0.21487 l -2.455771,0 q -0.306973,0 -0.521853,0.21487 -0.21488,0.21488 -0.21488,0.52185 l 0,6.54617 1.964618,-2.41739 q 0.337666,-0.40676 0.890216,-0.67152 0.55254,-0.26476 1.0744,-0.26476 z m 9.73866,1.25092 q 0,0.47581 -0.35301,0.92091 l -2.26391,2.78577 q -0.33,0.40672 -0.89022,0.67149 -0.56022,0.26475 -1.0744,0.26475 l -8.349621,0 q -0.706036,0 -1.212538,-0.50649 -0.506504,-0.5065 -0.506504,-1.21253 l 0,-7.36732 q 0,-0.70603 0.506504,-1.21253 0.506502,-0.50649 1.212538,-0.50649 l 2.455771,0 q 0.70604,0 1.21254,0.50649 0.50649,0.5065 0.50649,1.21253 l 0,0.24557 4.17482,0 q 0.70603,0 1.21254,0.5065 0.5065,0.50652 0.5065,1.21256 l 0,1.22787 1.47346,0 q 0.41441,0 0.75975,0.18801 0.34534,0.18803 0.51418,0.54105 0.11514,0.24557 0.11514,0.52186 z"
       inkscape:connector-curvature="0"
       style="fill:#ffffff;fill-opacity:1" />
    <path
       id="path5259"
       d="m 103.23876,1012.6407 0,-0.9343 q 0,-0.1022 -0.0657,-0.1679 -0.0657,-0.066 -0.16789,-0.066 l -1.4015,0 0,-1.4015 q 0,-0.1022 -0.0657,-0.1679 -0.0657,-0.066 -0.16789,-0.066 l -0.93433,0 q -0.10219,0 -0.16789,0.066 -0.0657,0.066 -0.0657,0.1679 l 0,1.4015 -1.401493,0 q -0.102192,0 -0.167888,0.066 -0.06569,0.066 -0.06569,0.1679 l 0,0.9343 q 0,0.1022 0.06569,0.1679 0.0657,0.066 0.167888,0.066 l 1.401493,0 0,1.4015 q 0,0.1021 0.0657,0.1679 0.0657,0.066 0.16789,0.066 l 0.93433,0 q 0.1022,0 0.16789,-0.066 0.0657,-0.066 0.0657,-0.1679 l 0,-1.4015 1.4015,0 q 0.10219,0 0.16789,-0.066 0.0657,-0.066 0.0657,-0.1679 z m 4.2045,0.4672 q 0,-0.3869 -0.27373,-0.6606 -0.27374,-0.2738 -0.66061,-0.2738 -0.38688,0 -0.6606,0.2738 -0.27373,0.2737 -0.27373,0.6606 0,0.3869 0.27373,0.6606 0.27372,0.2737 0.6606,0.2737 0.38687,0 0.66061,-0.2737 0.27373,-0.2737 0.27373,-0.6606 z m 1.86865,-1.8687 q 0,-0.3869 -0.27372,-0.6606 -0.27373,-0.2738 -0.66061,-0.2738 -0.38687,0 -0.6606,0.2738 -0.27372,0.2737 -0.27372,0.6606 0,0.3869 0.27372,0.6606 0.27373,0.2737 0.6606,0.2737 0.38688,0 0.66061,-0.2737 0.27372,-0.2737 0.27372,-0.6606 z m 1.86867,0.9343 q 0,1.5475 -1.09493,2.6424 -1.09491,1.095 -2.64239,1.095 -1.40151,0 -2.46723,-0.9343 l -1.60588,0 q -1.06572,0.9343 -2.46722,0.9343 -1.547482,0 -2.642402,-1.095 -1.09492,-1.0949 -1.09492,-2.6424 0,-1.5474 1.09492,-2.6423 1.09492,-1.095 2.642402,-1.095 l 6.54033,0 q 1.54748,0 2.64239,1.095 1.09493,1.0949 1.09493,2.6423 z"
       inkscape:connector-curvature="0"
       style="fill:#ffffff;fill-opacity:1" />
    <path
       id="path5369"
       d="m 10.538669,1001.1128 0,-1.53767 q 0,-0.13456 -0.0865,-0.22103 -0.0865,-0.0865 -0.22104,-0.0865 l -0.9225796,0 0,-4.92039 q 0,-0.13456 -0.0865,-0.22103 -0.0865,-0.0865 -0.22103,-0.0865 l -3.0752604,0 q -0.13454,0 -0.22102,0.0865 -0.0865,0.0865 -0.0865,0.22103 l 0,1.53764 q 0,0.13452 0.0865,0.22103 0.0865,0.0865 0.22102,0.0865 l 0.92258,0 0,3.07525 -0.92258,0 q -0.13454,0 -0.22102,0.0865 -0.0865,0.0865 -0.0865,0.22103 l 0,1.53764 q 0,0.1346 0.0865,0.2211 0.0865,0.087 0.22102,0.087 l 4.30536,0 q 0.13454,0 0.22104,-0.087 0.0865,-0.087 0.0865,-0.2211 z m -1.2300996,-8.61074 0,-1.53764 q 0,-0.13456 -0.0865,-0.22103 -0.0865,-0.0865 -0.22103,-0.0865 l -1.8451604,0 q -0.13454,0 -0.22103,0.0865 -0.0865,0.0865 -0.0865,0.22103 l 0,1.53764 q 0,0.13452 0.0865,0.22103 0.0865,0.0865 0.22103,0.0865 l 1.8451604,0 q 0.13454,0 0.22103,-0.0865 0.0865,-0.0865 0.0865,-0.22103 z m 6.1505096,3.99783 q 0,2.00851 -0.98985,3.70471 -0.98984,1.6962 -2.68603,2.6861 -1.6962,0.9898 -3.7047296,0.9898 -2.0085304,0 -3.7047204,-0.9898 -1.696189,-0.9899 -2.686039,-2.6861 -0.9898491,-1.6962 -0.9898491,-3.70471 0,-2.00855 0.9898491,-3.70475 0.98985,-1.69617 2.686039,-2.68601 1.69619,-0.98986 3.7047204,-0.98986 2.0085296,0 3.7047296,0.98986 1.69619,0.98984 2.68603,2.68601 0.98985,1.6962 0.98985,3.70475 z"
       inkscape:connector-curvature="0"
       style="fill:#00b0ff;fill-opacity:1" />
    <path
       id="path5459"
       d="m 109.63212,983.60642 q 0,-0.35638 -0.24946,-0.60584 l -1.85319,-1.85318 q -0.24946,-0.24946 -0.60584,-0.24946 -0.3742,0 -0.64149,0.28508 0.0268,0.0267 0.16928,0.16483 0.14255,0.1381 0.19155,0.19156 0.049,0.0534 0.13364,0.16926 0.0847,0.11585 0.11584,0.22722 0.0312,0.11137 0.0312,0.24501 0,0.35637 -0.24947,0.60583 -0.24947,0.24949 -0.60585,0.24949 -0.13364,0 -0.24501,-0.0312 -0.11137,-0.0312 -0.2272,-0.11581 -0.11582,-0.0847 -0.16927,-0.13365 -0.0534,-0.049 -0.19156,-0.19157 -0.1381,-0.14255 -0.16483,-0.16929 -0.29401,0.2762 -0.29401,0.65039 0,0.3564 0.24946,0.60587 l 1.83537,1.84427 q 0.24056,0.24055 0.60585,0.24055 0.35638,0 0.60585,-0.23164 l 1.3097,-1.30079 q 0.24946,-0.24946 0.24946,-0.59695 z m -6.2634,-6.28122 q 0,-0.35638 -0.24946,-0.60585 l -1.83537,-1.84426 q -0.24947,-0.24949 -0.60585,-0.24949 -0.34747,0 -0.60585,0.24057 l -1.309704,1.30079 q -0.24946,0.24947 -0.24946,0.59692 0,0.35641 0.24946,0.60587 l 1.853194,1.85318 q 0.24055,0.24055 0.60584,0.24055 0.3742,0 0.64149,-0.2762 -0.0268,-0.0267 -0.16928,-0.1648 -0.14255,-0.1381 -0.19155,-0.19157 -0.049,-0.0534 -0.13365,-0.16928 -0.0846,-0.11583 -0.11582,-0.22719 -0.0312,-0.11137 -0.0312,-0.24501 0,-0.3564 0.24947,-0.60586 0.24947,-0.24947 0.60585,-0.24947 0.13364,0 0.24501,0.0312 0.11137,0.0312 0.2272,0.11583 0.11582,0.0846 0.16927,0.13364 0.0534,0.049 0.19156,0.19157 0.1381,0.14255 0.16483,0.16926 0.29401,-0.2762 0.29401,-0.65039 z m 7.97404,6.28122 q 0,1.06914 -0.75731,1.80864 l -1.30971,1.30079 q -0.73949,0.73948 -1.80863,0.73948 -1.07806,0 -1.81755,-0.7573 l -1.83536,-1.84427 q -0.73949,-0.73951 -0.73949,-1.80866 0,-1.09584 0.78404,-1.86208 l -0.78404,-0.78404 q -0.76622,0.78404 -1.85319,0.78404 -1.06914,0 -1.817544,-0.7484 l -1.85318,-1.85318 q -0.74841,-0.74841 -0.74841,-1.81756 0,-1.06914 0.75731,-1.80862 l 1.30971,-1.30078 q 0.73949,-0.73951 1.808634,-0.73951 1.07806,0 1.81755,0.75734 l 1.83536,1.84426 q 0.73949,0.73948 0.73949,1.80863 0,1.09587 -0.78404,1.86208 l 0.78404,0.78404 q 0.76622,-0.78404 1.85319,-0.78404 1.06914,0 1.81754,0.74842 l 1.85318,1.85318 q 0.74841,0.74839 0.74841,1.81754 z"
       inkscape:connector-curvature="0"
       style="fill:#ffffff;fill-opacity:1" />
    <path
       id="path5522"
       d="m 100.95662,999.88084 -2.210243,2.21026 q -0.08634,0.078 -0.198577,0.078 -0.103604,0 -0.198576,-0.078 -0.0777,-0.086 -0.0777,-0.1986 0,-0.1122 0.0777,-0.1986 l 2.210246,-2.2102 q 0.0863,-0.0777 0.19857,-0.0777 0.11224,0 0.19858,0.0777 0.0777,0.0863 0.0777,0.19856 0,0.11223 -0.0777,0.19858 z m 1.4591,0.35396 0,2.7628 q 0,0.1209 -0.0777,0.1986 -0.0777,0.078 -0.19858,0.078 -0.12087,0 -0.19857,-0.078 -0.0777,-0.078 -0.0777,-0.1986 l 0,-2.7628 q 0,-0.1208 0.0777,-0.1986 0.0777,-0.0777 0.19857,-0.0777 0.12088,0 0.19858,0.0777 0.0777,0.078 0.0777,0.1986 z m -1.93396,-1.93394 q 0,0.12088 -0.0777,0.19856 -0.0777,0.0777 -0.19858,0.0777 l -2.762795,0 q -0.120872,0 -0.198577,-0.0777 -0.0777,-0.0777 -0.0777,-0.19856 0,-0.12087 0.0777,-0.19858 0.07771,-0.0777 0.198577,-0.0777 l 2.762795,0 q 0.12088,0 0.19858,0.0777 0.0777,0.0777 0.0777,0.19858 z m 10.91306,1.10512 q 0,1.03602 -0.73387,1.75262 l -1.26916,1.2606 q -0.7166,0.7166 -1.75265,0.7166 -1.04468,0 -1.76129,-0.7339 l -2.88367,-2.89232 q -0.18131,-0.18131 -0.36262,-0.4835 l 2.06347,-0.15539 2.35701,2.36561 q 0.23312,0.2331 0.5871,0.2375 0.35398,0 0.58709,-0.2288 l 1.26917,-1.26056 q 0.24174,-0.24175 0.24174,-0.57846 0,-0.34535 -0.24174,-0.58709 l -2.36565,-2.37428 0.1554,-2.06348 q 0.30219,0.18131 0.48349,0.36263 l 2.90094,2.90093 q 0.72524,0.7425 0.72524,1.76129 z m -5.32702,-6.25084 -2.06347,0.15542 -2.35701,-2.36566 q -0.24175,-0.24175 -0.5871,-0.24175 -0.33672,0 -0.58709,0.23311 l -1.269165,1.26055 q -0.241744,0.24174 -0.241744,0.57846 0,0.34534 0.241744,0.58709 l 2.365645,2.36564 -0.1554,2.07209 q -0.30218,-0.18128 -0.48349,-0.3626 l -2.900945,-2.90093 q -0.725234,-0.74253 -0.725234,-1.76129 0,-1.03605 0.733869,-1.75266 l 1.269162,-1.26052 q 0.716598,-0.71661 1.752648,-0.71661 1.04469,0 1.76129,0.73386 l 2.88367,2.89233 q 0.18131,0.18128 0.36262,0.48347 z m 5.46516,0.72524 q 0,0.12088 -0.0777,0.19856 -0.0777,0.0777 -0.19858,0.0777 l -2.7628,0 q -0.12087,0 -0.19857,-0.0777 -0.0777,-0.0777 -0.0777,-0.19856 0,-0.12087 0.0777,-0.19858 0.0777,-0.0777 0.19857,-0.0777 l 2.7628,0 q 0.12088,0 0.19858,0.0777 0.0777,0.0777 0.0777,0.19858 z m -4.69676,-4.69675 0,2.76279 q 0,0.12087 -0.0777,0.19859 -0.0777,0.0777 -0.19858,0.0777 -0.12087,0 -0.19857,-0.0777 -0.0777,-0.0777 -0.0777,-0.19859 l 0,-2.76279 q 0,-0.12087 0.0777,-0.19858 0.0777,-0.0777 0.19857,-0.0777 0.12088,0 0.19858,0.0777 0.0777,0.0777 0.0777,0.19858 z m 3.51394,1.30368 -2.21024,2.21024 q -0.095,0.0777 -0.19858,0.0777 -0.1036,0 -0.19858,-0.0777 -0.0777,-0.0863 -0.0777,-0.19856 0,-0.11223 0.0777,-0.19859 l 2.21024,-2.21024 q 0.0863,-0.0777 0.19858,-0.0777 0.11224,0 0.19858,0.0777 0.0777,0.0863 0.0777,0.19859 0,0.11224 -0.0777,0.19856 z"
       inkscape:connector-curvature="0"
       style="fill:#ffffff;fill-opacity:1" />
    <path
       id="path5595"
       d="m 121.84685,930.59165 0,0.53642 q 0,0.10895 -0.0796,0.18858 -0.0796,0.0796 -0.18858,0.0796 l -1.87742,0 0,1.87746 q 0,0.10896 -0.0796,0.18855 -0.0796,0.0796 -0.18858,0.0796 l -0.53641,0 q -0.10896,0 -0.18858,-0.0796 -0.0796,-0.0796 -0.0796,-0.18855 l 0,-1.87746 -1.87742,0 q -0.10896,0 -0.18859,-0.0796 -0.0796,-0.0796 -0.0796,-0.18858 l 0,-0.53642 q 0,-0.10896 0.0796,-0.18858 0.0796,-0.0796 0.18859,-0.0796 l 1.87742,0 0,-1.87742 q 0,-0.10896 0.0796,-0.18858 0.0796,-0.0796 0.18858,-0.0796 l 0.53641,0 q 0.10896,0 0.18858,0.0796 0.0796,0.0796 0.0796,0.18858 l 0,1.87742 1.87742,0 q 0.10896,0 0.18858,0.0796 0.0796,0.0796 0.0796,0.18858 z m 1.07282,0.2682 q 0,-1.55055 -1.10215,-2.6527 -1.10215,-1.10215 -2.6527,-1.10215 -1.55056,0 -2.6527,1.10215 -1.10215,1.10215 -1.10215,2.6527 0,1.55055 1.10215,2.6527 1.10214,1.10214 2.6527,1.10214 1.55055,0 2.6527,-1.10214 1.10215,-1.10215 1.10215,-2.6527 z m 4.29125,6.97329 q 0,0.44423 -0.3143,0.75852 -0.3143,0.3143 -0.75851,0.3143 -0.45259,0 -0.75432,-0.31848 l -2.87481,-2.86642 q -1.50026,1.03927 -3.34416,1.03927 -1.19854,0 -2.29231,-0.46516 -1.09377,-0.46516 -1.8858,-1.25722 -0.79204,-0.79203 -1.25721,-1.88578 -0.46516,-1.09379 -0.46516,-2.29232 0,-1.19854 0.46516,-2.2923 0.46517,-1.09377 1.25721,-1.88581 0.79203,-0.79204 1.8858,-1.2572 1.09377,-0.46517 2.29231,-0.46517 1.19853,0 2.2923,0.46517 1.09377,0.46516 1.88581,1.2572 0.79203,0.79204 1.2572,1.88581 0.46517,1.09376 0.46517,2.2923 0,1.84392 -1.03929,3.34417 l 2.8748,2.87482 q 0.31011,0.31008 0.31011,0.7543 z"
       inkscape:connector-curvature="0"
       style="fill:#ffffff;fill-opacity:1" />
    <path
       id="path5658"
       d="m 121.72201,946.62393 0,0.53401 q 0,0.10848 -0.0792,0.18773 -0.0792,0.0792 -0.18774,0.0792 l -4.80608,0 q -0.10848,0 -0.18774,-0.0792 -0.0792,-0.0792 -0.0792,-0.18773 l 0,-0.53401 q 0,-0.10847 0.0792,-0.18773 0.0792,-0.0792 0.18774,-0.0792 l 4.80608,0 q 0.10847,0 0.18774,0.0792 0.0792,0.0792 0.0792,0.18773 z m 1.06802,0.26701 q 0,-1.54362 -1.09722,-2.64084 -1.09722,-1.09722 -2.64084,-1.09722 -1.54362,0 -2.64085,1.09722 -1.09722,1.09722 -1.09722,2.64084 0,1.54363 1.09722,2.64085 1.09723,1.09721 2.64085,1.09721 1.54362,0 2.64084,-1.09721 1.09722,-1.09722 1.09722,-2.64085 z m 4.27208,6.94212 q 0,0.44223 -0.31289,0.75512 -0.31291,0.3129 -0.75513,0.3129 -0.45057,0 -0.75095,-0.31706 l -2.86197,-2.85361 q -1.49354,1.03463 -3.3292,1.03463 -1.19317,0 -2.28206,-0.46307 -1.08888,-0.46311 -1.87738,-1.2516 -0.78849,-0.78851 -1.25158,-1.87737 -0.46309,-1.08889 -0.46309,-2.28206 0,-1.19317 0.46309,-2.28206 0.46309,-1.08887 1.25158,-1.87737 0.7885,-0.7885 1.87738,-1.25158 1.08889,-0.46309 2.28206,-0.46309 1.19317,0 2.28206,0.46309 1.08887,0.46308 1.87737,1.25158 0.7885,0.7885 1.25158,1.87737 0.46309,1.08889 0.46309,2.28206 0,1.83567 -1.03465,3.32921 l 2.86197,2.86197 q 0.30872,0.30871 0.30872,0.75094 z"
       inkscape:connector-curvature="0"
       style="fill:#ffffff;fill-opacity:1" />
    <path
       style="fill:#ffffff;fill-opacity:1"
       inkscape:connector-curvature="0"
       d="m 106.46805,953.07087 0,-1.53767 q 0,-0.13456 -0.0865,-0.22103 -0.0865,-0.0865 -0.22104,-0.0865 l -0.92258,0 0,-4.92039 q 0,-0.13456 -0.0865,-0.22103 -0.0865,-0.0865 -0.22103,-0.0865 l -3.07526,0 q -0.13454,0 -0.22102,0.0865 -0.0865,0.0865 -0.0865,0.22103 l 0,1.53764 q 0,0.13452 0.0865,0.22103 0.0865,0.0865 0.22102,0.0865 l 0.92258,0 0,3.07525 -0.92258,0 q -0.13454,0 -0.22102,0.0865 -0.0865,0.0865 -0.0865,0.22103 l 0,1.53764 q 0,0.1346 0.0865,0.2211 0.0865,0.087 0.22102,0.087 l 4.30536,0 q 0.13454,0 0.22104,-0.087 0.0865,-0.087 0.0865,-0.2211 z m -1.2301,-8.61074 0,-1.53764 q 0,-0.13456 -0.0865,-0.22103 -0.0865,-0.0865 -0.22103,-0.0865 l -1.84516,0 q -0.13454,0 -0.22103,0.0865 -0.0865,0.0865 -0.0865,0.22103 l 0,1.53764 q 0,0.13452 0.0865,0.22103 0.0865,0.0865 0.22103,0.0865 l 1.84516,0 q 0.13454,0 0.22103,-0.0865 0.0865,-0.0865 0.0865,-0.22103 z m 6.15051,3.99783 q 0,2.00851 -0.98985,3.70471 -0.98984,1.6962 -2.68603,2.6861 -1.6962,0.9898 -3.70473,0.9898 -2.00853,0 -3.70472,-0.9898 -1.696184,-0.9899 -2.686034,-2.6861 -0.98985,-1.6962 -0.98985,-3.70471 0,-2.00855 0.98985,-3.70475 0.98985,-1.69617 2.686034,-2.68601 1.69619,-0.98986 3.70472,-0.98986 2.00853,0 3.70473,0.98986 1.69619,0.98984 2.68603,2.68601 0.98985,1.6962 0.98985,3.70475 z"
       id="path4242" />
    <path
       sodipodi:nodetypes="csccsscc"
       id="path4244"
       d="m 14.808396,1049.9038 c 0,1.0211 -3.035227,1.8491 -6.7798598,1.8491 -3.744659,10e-5 -6.780071,-0.828 -6.780071,-1.8491 l 0,-11.0949 c 0,-1.0214 3.035412,-1.8492 6.780071,-1.8492 l 0,2e-4 c 3.7446328,0 6.7798598,0.8278 6.7798598,1.8492 z"
       inkscape:connector-curvature="0"
       style="fill:none;fill-opacity:1;stroke:#000000;stroke-width:1;stroke-miterlimit:4;stroke-dasharray:none;stroke-opacity:1" />
    <g
       transform="matrix(0.10499117,0,0,0.10499117,1.3472662,1021.7088)"
       id="g4262"
       style="fill:none;fill-opacity:1;stroke:#000000;stroke-width:6.88777447;stroke-miterlimit:4;stroke-dasharray:none;stroke-opacity:1">
      <g
         id="g4270"
         style="fill:none;fill-opacity:1;stroke:#000000;stroke-width:6.88777447;stroke-miterlimit:4;stroke-dasharray:none;stroke-opacity:1">
        <path
           style="fill:none;fill-opacity:1;stroke:#000000;stroke-width:6.88777447;stroke-miterlimit:4;stroke-dasharray:none;stroke-opacity:1"
           inkscape:connector-curvature="0"
           d="M 46.7,80.07 C 46.78,79.88 54.79,61.21 76.1,48.46 L 82.22,44.8 76.1,41.13 C 54.79,28.39 46.78,9.72 46.71,9.54 L 42.79,0.08 38.83,9.53 C 38.75,9.72 30.74,28.39 9.43,41.14 L 3.3,44.8 9.42,48.46 c 21.31,12.75 29.32,31.42 29.4,31.61 l 3.92,9.44 z"
           id="path4272"
           sodipodi:nodetypes="ccccccccccccc" />
        <path
           style="fill:none;fill-opacity:1;stroke:#000000;stroke-width:6.88777447;stroke-miterlimit:4;stroke-dasharray:none;stroke-opacity:1"
           inkscape:connector-curvature="0"
           d="M 117.92,67.26 C 104.6,60.68 99.58,51.13 99.54,51.05 l -3.31,-6.56 -3.36,6.55 c -0.05,0.09 -5.07,9.64 -18.4,16.23 l -6.78,3.35 6.78,3.35 c 13.29,6.57 18.32,16.08 18.39,16.23 l 3.3,6.55 3.36,-6.55 c 0.05,-0.09 5.07,-9.64 18.39,-16.23 l 6.78,-3.35 z"
           id="path4274"
           sodipodi:nodetypes="ccccccccccccc" />
        <path
           style="fill:none;fill-opacity:1;stroke:#000000;stroke-width:6.88777447;stroke-miterlimit:4;stroke-dasharray:none;stroke-opacity:1"
           inkscape:connector-curvature="0"
           d="m 67.18,80.82 -3.43,-8.54 -3.49,8.53 c -0.04,0.09 -4.03,9.61 -14.54,16.11 l -5.14,3.18 5.14,3.17 c 10.46,6.47 14.46,15.92 14.54,16.11 l 3.43,8.53 3.49,-8.53 c 0.04,-0.1 4.02,-9.61 14.54,-16.11 l 5.14,-3.17 -5.14,-3.18 C 71.2,90.42 67.21,80.91 67.18,80.82 Z"
           id="path4276"
           sodipodi:nodetypes="ccccccccccccc" />
      </g>
    </g>
    <circle
       style="fill:none;fill-opacity:1;fill-rule:nonzero;stroke:#000000;stroke-width:0.9588607;stroke-linejoin:miter;stroke-miterlimit:4;stroke-dasharray:none;stroke-opacity:1"
       id="path4278"
       cx="8"
       cy="1012.3622"
       r="7.2001872" />
    <circle
       r="7.1229572"
       cy="996.40375"
       cx="8.0509853"
       id="circle4280"
       style="fill:none;fill-opacity:1;fill-rule:nonzero;stroke:#000000;stroke-width:0.94857585;stroke-linejoin:round;stroke-miterlimit:4;stroke-dasharray:none;stroke-opacity:1" />
    <g
       id="g3516"
       transform="matrix(0.32198959,0,0,0.32198959,-15.18449,670.22212)">
      <path
         style="fill:#dbdbdb;fill-opacity:1;stroke:none"
         d="m 72,941.59854 -20,10 20,10 20,-10 z"
         id="path2987"
         inkscape:connector-curvature="0"
         sodipodi:nodetypes="ccccc" />
      <path
         sodipodi:nodetypes="ccccc"
         inkscape:connector-curvature="0"
         id="path2989"
         d="m 72,961.59854 0,25 20,-10 0,-25 z"
         style="fill:#cbcbcb;fill-opacity:1;stroke:none" />
      <path
         style="fill:#818181;fill-opacity:1;stroke:none"
         d="m 72,961.59854 0,25 -20,-10 0,-25 z"
         id="path2991"
         inkscape:connector-curvature="0"
         sodipodi:nodetypes="ccccc" />
      <path
         style="fill:none;stroke:#000000;stroke-width:2.90463042;stroke-linecap:butt;stroke-linejoin:miter;stroke-miterlimit:4;stroke-dasharray:none;stroke-opacity:1"
         d="m 72,941.37499 -20,10 0,25 20,10 20,-10 0,-25 -20,-10 z"
         id="path2993"
         inkscape:connector-curvature="0" />
      <g
         id="g4609"
         transform="matrix(0.17060215,0,0,0.17060215,50.333785,893.89389)"
         style="stroke:none;stroke-opacity:1">
        <path
           id="path3"
           d="m 87.423,88.968 c 0.562,3.126 -1.517,6.115 -4.642,6.676 l -33.956,6.102 c -3.126,0.562 -6.115,-1.517 -6.676,-4.642 l 0,0 c -0.562,-3.126 1.517,-6.115 4.642,-6.676 l 33.956,-6.102 c 3.126,-0.562 6.114,1.516 6.676,4.642 l 0,0 z"
           inkscape:connector-curvature="0"
           style="fill:#333333;stroke:none;stroke-opacity:1" />
        <g
           transform="translate(-285.71429,-365.21932)"
           id="layer1-5"
           style="stroke:none;stroke-opacity:1">
          <g
             id="g4702"
             transform="matrix(1.0457519,0,0,1.0457519,-18.299215,-25.629196)">
            <path
               inkscape:connector-curvature="0"
               id="path2985"
               d="m 534.285,489.505 c 0.024,68.641 -55.601,124.305 -124.242,124.329 -68.641,0.024 -124.305,-55.602 -124.329,-124.243 0,-0.029 0,-0.058 0,-0.086 -0.024,-68.641 55.602,-124.305 124.243,-124.329 68.641,-0.023 124.305,55.602 124.328,124.243 0,0.028 0,0.057 0,0.086 z"
               style="fill:#76c2af;fill-opacity:1;stroke:#000000;stroke-width:13.74423695;stroke-miterlimit:4;stroke-dasharray:none;stroke-opacity:1" />
            <path
               style="fill:#231f20;stroke:none;stroke-width:6;stroke-opacity:1"
               inkscape:connector-curvature="0"
               id="path3099"
               d="m 410.951,366.726 c -2.583,27.364 -8.65,40.051 -11.059,50.922 -1.204,5.436 -1.468,10.432 0.094,16.466 1.562,6.034 4.943,13.107 11.027,22.808 l 0.846,-0.518 c -6.057,-9.659 -9.378,-16.649 -10.901,-22.534 -1.523,-5.885 -1.247,-10.662 -0.063,-16.008 2.369,-10.694 8.465,-23.569 11.058,-51.044 l -1.002,-0.092 0,0 z" />
            <g
               style="stroke:none;stroke-opacity:1"
               id="g3915">
              <g
                 style="stroke:none;stroke-opacity:1"
                 id="g9">
                <path
                   style="fill:#c1bc9d;stroke:none;stroke-opacity:1"
                   inkscape:connector-curvature="0"
                   id="path2993_1_"
                   d="m 399.265,504.94 c 0,22.092 -17.909,40 -40,40 -22.092,0 -40,-17.908 -40,-40 l 0,0 c 0,-22.091 17.908,-40 40,-40 22.091,0 40,17.909 40,40 z" />
                <path
                   style="fill:#c1bc9d;stroke:none;stroke-opacity:1"
                   inkscape:connector-curvature="0"
                   id="path2993-7_1_"
                   d="m 501.264,504.94 c 0,22.092 -17.908,40 -40,40 -22.092,0 -40,-17.908 -40,-40 l 0,0 c 0,-22.091 17.908,-40 40,-40 22.092,0 40,17.909 40,40 z" />
                <rect
                   style="fill:#c1bc9d;stroke:none;stroke-opacity:1"
                   id="rect3031_1_"
                   x="356.04999"
                   y="464.94"
                   width="105.713"
                   height="60" />
              </g>
              <g
                 style="stroke:none;stroke-opacity:1"
                 id="g14">
                <path
                   style="fill:#f2f2f2;stroke:none;stroke-opacity:1"
                   inkscape:connector-curvature="0"
                   id="path2993-6"
                   d="m 399.598,496.273 c 0,22.092 -17.909,40 -40,40 -22.092,0 -40,-17.908 -40,-40 l 0,0 c 0,-22.091 17.908,-40 40,-40 22.091,0 40,17.909 40,40 z" />
                <path
                   style="fill:#f2f2f2;stroke:none;stroke-opacity:1"
                   inkscape:connector-curvature="0"
                   id="path2993-7"
                   d="m 501.598,496.273 c 0,22.092 -17.908,40 -40,40 -22.092,0 -40,-17.908 -40,-40 l 0,0 c 0,-22.091 17.908,-40 40,-40 22.092,0 40,17.909 40,40 z" />
                <rect
                   style="fill:#f2f2f2;stroke:none;stroke-opacity:1"
                   id="rect3031"
                   x="356.384"
                   y="456.27301"
                   width="105.714"
                   height="60" />
              </g>
              <g
                 style="stroke:none;stroke-opacity:1"
                 id="g19">
                <path
                   style="fill:#c1bc9d;stroke:none;stroke-opacity:1"
                   inkscape:connector-curvature="0"
                   id="path3055_2_"
                   d="m 472.387,478.471 c 0,5.061 -4.104,9.163 -9.164,9.163 -5.06,0 -9.163,-4.102 -9.163,-9.163 0,-5.061 4.103,-9.163 9.163,-9.163 5.06,0 9.164,4.102 9.164,9.163 l 0,0 z" />
                <path
                   style="fill:#c1bc9d;stroke:none;stroke-opacity:1"
                   inkscape:connector-curvature="0"
                   id="path3055-0_2_"
                   d="m 472.531,516.005 c 0,5.061 -4.103,9.163 -9.162,9.163 -5.062,0 -9.164,-4.103 -9.164,-9.163 0,-5.062 4.103,-9.164 9.164,-9.164 5.06,0 9.162,4.102 9.162,9.164 l 0,0 z" />
                <path
                   style="fill:#c1bc9d;stroke:none;stroke-opacity:1"
                   inkscape:connector-curvature="0"
                   id="path3055-9_2_"
                   d="m 491.125,497.376 c 0,5.06 -4.104,9.163 -9.162,9.163 -5.063,0 -9.164,-4.104 -9.164,-9.163 0,-5.062 4.102,-9.164 9.164,-9.164 5.058,0 9.162,4.103 9.162,9.164 l 0,0 z" />
                <path
                   style="fill:#c1bc9d;stroke:none;stroke-opacity:1"
                   inkscape:connector-curvature="0"
                   id="path3055-4_2_"
                   d="m 453.724,497.356 c 0,5.063 -4.103,9.164 -9.163,9.164 -5.062,0 -9.163,-4.102 -9.163,-9.164 0,-5.06 4.102,-9.163 9.163,-9.163 5.06,0 9.163,4.103 9.163,9.163 l 0,0 z" />
              </g>
              <g
                 style="stroke:none;stroke-opacity:1"
                 id="g25">
                <path
                   style="fill:#141212;stroke:none;stroke-opacity:1"
                   inkscape:connector-curvature="0"
                   id="path3055_1_"
                   d="m 472.387,477.221 c 0,5.061 -4.104,9.163 -9.164,9.163 -5.06,0 -9.163,-4.102 -9.163,-9.163 0,-5.061 4.103,-9.163 9.163,-9.163 5.06,0 9.164,4.102 9.164,9.163 l 0,0 z" />
                <path
                   style="fill:#141212;stroke:none;stroke-opacity:1"
                   inkscape:connector-curvature="0"
                   id="path3055-0_1_"
                   d="m 472.531,514.755 c 0,5.061 -4.103,9.163 -9.162,9.163 -5.062,0 -9.164,-4.103 -9.164,-9.163 0,-5.062 4.103,-9.164 9.164,-9.164 5.06,0 9.162,4.102 9.162,9.164 l 0,0 z" />
                <path
                   style="fill:#141212;stroke:none;stroke-opacity:1"
                   inkscape:connector-curvature="0"
                   id="path3055-9_1_"
                   d="m 491.125,496.126 c 0,5.06 -4.104,9.163 -9.162,9.163 -5.063,0 -9.164,-4.104 -9.164,-9.163 0,-5.062 4.102,-9.164 9.164,-9.164 5.058,0 9.162,4.103 9.162,9.164 l 0,0 z" />
                <path
                   style="fill:#141212;stroke:none;stroke-opacity:1"
                   inkscape:connector-curvature="0"
                   id="path3055-4_1_"
                   d="m 453.724,496.106 c 0,5.063 -4.103,9.164 -9.163,9.164 -5.062,0 -9.163,-4.102 -9.163,-9.164 0,-5.06 4.102,-9.163 9.163,-9.163 5.06,0 9.163,4.103 9.163,9.163 l 0,0 z" />
              </g>
              <path
                 style="fill:#333333;stroke:none;stroke-opacity:1"
                 inkscape:connector-curvature="0"
                 id="path3055"
                 d="m 472.387,474.846 c 0,5.061 -4.104,9.163 -9.164,9.163 -5.06,0 -9.163,-4.103 -9.163,-9.163 0,-5.061 4.103,-9.163 9.163,-9.163 5.06,0 9.164,4.102 9.164,9.163 l 0,0 z" />
              <path
                 style="fill:#333333;stroke:none;stroke-opacity:1"
                 inkscape:connector-curvature="0"
                 id="path3055-0"
                 d="m 472.531,512.38 c 0,5.061 -4.103,9.163 -9.162,9.163 -5.062,0 -9.164,-4.103 -9.164,-9.163 0,-5.062 4.103,-9.164 9.164,-9.164 5.06,0 9.162,4.102 9.162,9.164 l 0,0 z" />
              <path
                 style="fill:#333333;stroke:none;stroke-opacity:1"
                 inkscape:connector-curvature="0"
                 id="path3055-9"
                 d="m 491.125,493.751 c 0,5.06 -4.104,9.163 -9.162,9.163 -5.063,0 -9.164,-4.104 -9.164,-9.163 0,-5.062 4.102,-9.164 9.164,-9.164 5.058,0.001 9.162,4.103 9.162,9.164 l 0,0 z" />
              <path
                 style="fill:#333333;stroke:none;stroke-opacity:1"
                 inkscape:connector-curvature="0"
                 id="path3055-4"
                 d="m 453.724,493.731 c 0,5.063 -4.103,9.164 -9.163,9.164 -5.062,0 -9.163,-4.102 -9.163,-9.164 0,-5.06 4.102,-9.163 9.163,-9.163 5.06,0 9.163,4.103 9.163,9.163 l 0,0 z" />
              <g
                 style="stroke:none;stroke-opacity:1"
                 id="g35">
                <path
                   style="fill:#c1bc9d;stroke:none;stroke-opacity:1"
                   inkscape:connector-curvature="0"
                   d="m 383.75,502.13 c 0,3.797 -3.078,6.875 -6.875,6.875 l -36.25,0 c -3.797,0 -6.875,-3.078 -6.875,-6.875 l 0,0 c 0,-3.797 3.078,-6.875 6.875,-6.875 l 36.25,0 c 3.797,0 6.875,3.078 6.875,6.875 l 0,0 z"
                   id="path37" />
                <path
                   style="fill:#c1bc9d;stroke:none;stroke-opacity:1"
                   inkscape:connector-curvature="0"
                   d="m 358.625,477.13 c 3.797,0 6.875,3.078 6.875,6.875 l 0,36.25 c 0,3.797 -3.078,6.875 -6.875,6.875 l 0,0 c -3.797,0 -6.875,-3.078 -6.875,-6.875 l 0,-36.25 c 0,-3.797 3.078,-6.875 6.875,-6.875 l 0,0 z"
                   id="path39" />
              </g>
              <g
                 style="stroke:none;stroke-opacity:1"
                 id="g41">
                <path
                   style="fill:#141212;stroke:none;stroke-opacity:1"
                   inkscape:connector-curvature="0"
                   d="m 383.75,499.255 c 0,3.797 -3.078,6.875 -6.875,6.875 l -36.25,0 c -3.797,0 -6.875,-3.078 -6.875,-6.875 l 0,0 c 0,-3.797 3.078,-6.875 6.875,-6.875 l 36.25,0 c 3.797,0 6.875,3.078 6.875,6.875 l 0,0 z"
                   id="path43" />
                <path
                   style="fill:#141212;stroke:none;stroke-opacity:1"
                   inkscape:connector-curvature="0"
                   d="m 358.625,474.255 c 3.797,0 6.875,3.078 6.875,6.875 l 0,36.25 c 0,3.797 -3.078,6.875 -6.875,6.875 l 0,0 c -3.797,0 -6.875,-3.078 -6.875,-6.875 l 0,-36.25 c 0,-3.797 3.078,-6.875 6.875,-6.875 l 0,0 z"
                   id="path45" />
              </g>
              <g
                 style="stroke:none;stroke-opacity:1"
                 id="g47">
                <path
                   style="fill:#333333;stroke:none;stroke-opacity:1"
                   inkscape:connector-curvature="0"
                   d="m 383.75,495.755 c 0,3.797 -3.078,6.875 -6.875,6.875 l -36.25,0 c -3.797,0 -6.875,-3.078 -6.875,-6.875 l 0,0 c 0,-3.797 3.078,-6.875 6.875,-6.875 l 36.25,0 c 3.797,0 6.875,3.078 6.875,6.875 l 0,0 z"
                   id="path49" />
                <path
                   style="fill:#333333;stroke:none;stroke-opacity:1"
                   inkscape:connector-curvature="0"
                   d="m 358.625,470.755 c 3.797,0 6.875,3.078 6.875,6.875 l 0,36.25 c 0,3.797 -3.078,6.875 -6.875,6.875 l 0,0 c -3.797,0 -6.875,-3.078 -6.875,-6.875 l 0,-36.25 c 0,-3.797 3.078,-6.875 6.875,-6.875 l 0,0 z"
                   id="path51" />
              </g>
            </g>
          </g>
        </g>
      </g>
    </g>
  </g>
</svg>
